Music_WildBattle_Ch1:
	duty 3
	vibrato 6, 3, 4
	notetype 12, 11, 3 ;	notetype $C, $00
	rest 16
	octave 5
	A# 6
	A_ 1
	G# 1
	A_ 1
	G# 1
	G_ 1
	F# 1
	G# 1
	G_ 1
	F# 1
	F_ 1
Music_WildBattle_Ch1_loop::
	notetype 12, 11, 3 ; 	notetype $C, $00
	octave 4
	G_ 1
	rest 5
	G_ 1
	rest 5
	G_ 1
	rest 13
	notetype 15, 11, 3 ;	notetype $E, $00
	D# 3
	notetype 6, 11, 3 ;	notetype $6, $00
	rest 1
	G_ 2
	rest 2
	G# 2
	rest 10
	G# 2
	rest 10
	G# 2
	notetype 14, 11, 3 ;	notetype $D, $00
	rest 12
	notetype 12, 11, 3 ;	notetype $C, $00
	D# 4
	F_ 1
	rest 1
	G_ 1
	rest 5
	G_ 1
	rest 5
	G_ 1
	rest 13
	notetype 15, 11, 3 ;	notetype $E, $00
	D# 3
	notetype 6, 11, 3 ;	notetype $6, $00
	rest 1
	G_ 2
	rest 2
	G# 2
	rest 10
	G# 2
	rest 10
	G# 2
	notetype 12, 11, 3 ;	notetype $C, $00
	rest 11
	G# 1
	F_ 1
	D_ 1
	F_ 1
	G_ 1
	A# 1
	octave 5
	C_ 1
	D_ 1
	D# 8
	rest 2
	octave 4
	G_ 2
	octave 5
	C_ 2
	D# 2
	D_ 4
	rest 2
	octave 4
	A# 4
	rest 2
	F_ 4
	G_ 16
	rest 12
	rest 4
	octave 5
	D# 8
	rest 2
	octave 4
	G_ 2
	octave 5
	C_ 2
	D# 2
	D_ 4
	rest 2
	D# 4
	rest 2
	octave 4
	A# 2
	octave 5
	F_ 2
	G_ 16
	rest 12
	notetype 6, 11, 3 ;	notetype $6, $00
	C_ 1
	C# 1
	D_ 1
	D# 1
	E_ 1
	F_ 1
	F# 1
	G_ 1
	G# 16
	E_ 1
	F_ 1
	F# 1
	G_ 1
	G# 4
	G_ 4
	F_ 4
	G_ 8
	G_ 1
	F# 1
	F_ 1
	E_ 1
	D# 12
	G_ 8
	F_ 8
	F_ 1
	E_ 1
	F_ 1
	F# 1
	G_ 12
	D_ 8
	D# 8
	rest 1
	D# 1
	D_ 1
	C# 1
	C_ 12
	G_ 8
	G# 16
	E_ 1
	F_ 1
	F# 1
	G_ 1
	G# 4
	A# 4
	G# 4
	G_ 8
	G_ 1
	F# 1
	F_ 1
	E_ 1
	D# 12
	G_ 8
	G# 16
	E_ 1
	F_ 1
	F# 1
	G_ 1
	G# 4
	G_ 4
	F_ 4
	octave 6
	C_ 4
	octave 5
	A# 1
	B_ 1
	octave 6
	C_ 4
	octave 5
	A# 1
	B_ 1
	octave 6
	C_ 4
	octave 5
	B_ 2
	G_ 2
	D_ 2
	B_ 2
	octave 6
	D_ 7
	rest 1
	octave 3
	G_ 6
	octave 4
	C_ 6
	D_ 4
	D# 6
	D_ 6
	C_ 4
	F_ 6
	D# 6
	D_ 4
	notetype 11, 11, 3 ;	notetype $B, $00
	D# 8
	notetype 8, 11, 3 ;	notetype $8, $00
	rest 1
	notetype 12, 11, 3 ;	notetype $C, $00
	C_ 3
	octave 3
	G_ 3
	octave 4
	C_ 2
	D_ 3
	octave 3
	G_ 3
	octave 4
	D_ 2
	D# 3
	D_ 3
	C_ 2
	octave 3
	notetype 11, 11, 3 ;	notetype $B, $00
	B_ 8
	notetype 8, 11, 3 ;	notetype $8, $00
	rest 1
	octave 4
	notetype 12, 11, 3 ;	notetype $C, $00
	C_ 3
	octave 3
	G_ 3
	octave 4
	C_ 2
	D_ 3
	octave 3
	G_ 3
	octave 4
	D_ 2
	D# 3
	F_ 3
	G_ 2
	F_ 3
	D# 3
	D_ 2
	C_ 3
	octave 3
	G_ 3
	octave 4
	C_ 2
	octave 3
	B_ 3
	G_ 3
	B_ 2
	octave 4
	C_ 15
	notetype 1, 11, 3 ;	notetype $1, $00
	C_ 4
;	notetype 12, 11, 3 ;	notetype $C, $00
	loopchannel 0, Music_WildBattle_Ch1_loop

Music_WildBattle_Ch0:
	tempo 114
	volume 7, 7
	toggleperfectpitch
	duty 1
	vibrato 3, 1, 2 ; 8, 2, 5
	octave 4
	notetype 12, 11, 5 ;	notetype $C, $00
	G_ 1
	F# 1
	F_ 1
	E_ 1
	G_ 1
	F# 1
	F_ 1
	E_ 1
	G_ 1
	F# 1
	F_ 1
	E_ 1
	G_ 1
	F# 1
	F_ 1
	E_ 1
	G_ 1
	F# 1
	F_ 1
	E_ 1
	F# 1
	F_ 1
	E_ 1
	D# 1
	F_ 1
	E_ 1
	D# 1
	D_ 1
	E_ 1
	D# 1
	D_ 1
	C# 1
Music_WildBattle_Ch0_loop::
	notetype 12, 11, 5 ; 	notetype $C, $00
	C_ 1
	rest 5
	C_ 1
	rest 5
	C_ 1
	rest 13
	notetype 15, 11, 5 ;	notetype $E, $00
	C_ 3
	notetype 6, 11, 5 ;	notetype $6, $00
	rest 1
	D# 2
	rest 2
	C# 2
	rest 10
	C# 2
	rest 10
	C# 2
	notetype 14, 11, 5 ;	notetype $D, $00
	rest 12
	notetype 12, 11, 5 ;	notetype $C, $00
	C_ 4
	D_ 1
	rest 1
	C_ 1
	rest 5
	C_ 1
	rest 5
	C_ 1
	rest 13
	notetype 15, 11, 5 ;	notetype $E, $00
	C_ 3
	notetype 6, 11, 5 ;	notetype $6, $00
	rest 1
	D# 2
	rest 2
	C# 2
	rest 10
	C# 2
	rest 10
	C# 2
	rest 16
	rest 16
	rest 6
	octave 5
	C_ 16
	rest 4
	octave 4
	D# 4
	G_ 4
	octave 5
	C_ 4
	octave 4
	A# 8
	rest 4
	F_ 8
	rest 4
	D_ 8
	D# 16
	rest 16
	rest 16
	rest 8
	rest 8
	octave 5
	C_ 16
	rest 4
	octave 4
	D# 4
	G_ 4
	octave 5
	C_ 4
	octave 4
	A# 8
	rest 4
	octave 5
	C_ 8
	rest 4
	octave 4
	A# 4
	octave 5
	D_ 4
	notetype 12, 11, 5 ;	notetype $C, $00
	D# 16
	D_ 12
	rest 4
	octave 4
	F_ 8
	rest 2
	F_ 2
	D# 2
	D_ 2
	D# 6
	D# 6
	D# 4
	D_ 6
	D_ 6
	octave 3
	A# 4
	octave 4
	C_ 6
	C_ 6
	D# 4
	F_ 8
	rest 2
	F_ 2
	G_ 2
	F_ 2
	D# 6
	D# 6
	D# 4
	F_ 1
	D_ 1
	octave 3
	A# 1
	octave 4
	D_ 1
	F_ 4
	rest 2
	F_ 2
	D# 2
	D_ 2
	G_ 2
	rest 1
	G_ 2
	rest 1
	G_ 2
	G_ 4
	notetype 15, 11, 5 ;	notetype $E, $00
	G_ 3
	notetype 6, 11, 5 ;	notetype $6, $00
	rest 1
	octave 2
	G_ 16
	rest 16
	rest 16
	rest 16
	G_ 16
	rest 16
	rest 16
	G_ 16
	G_ 16
	rest 16
	rest 16
	rest 16
	G_ 16
	G_ 16
	G_ 16
	rest 14
	notetype 1, 11, 5 ;	notetype $1, $00
	rest 4
;	notetype 6, 11, 5 ;	notetype $6, $00
	loopchannel 0, Music_WildBattle_Ch0_loop

Music_WildBattle_Ch2:
	duty 3
	vibrato 6, 3, 4
	octave 2
	notetype 12, 15, 3 ;	notetype $C, $00
	C_ 1
	rest 1
	C_ 1
	octave 3
	C_ 1
	octave 2
	C# 1
	rest 1
	C# 1
	octave 3
	C# 1
	octave 2
	D_ 1
	rest 1
	D_ 1
	octave 3
	D_ 1
	octave 2
	D# 1
	rest 1
	D# 1
	octave 3
	D# 1
	octave 2
	E_ 1
	rest 1
	E_ 1
	octave 3
	E_ 1
	octave 2
	F_ 1
	rest 1
	F_ 1
	octave 3
	F_ 1
	octave 2
	F# 1
	rest 1
	F# 1
	octave 3
	F# 1
	octave 2
	G_ 1
	rest 1
	G_ 1
	octave 3
	G_ 1
Music_WildBattle_Ch2_loop::
	notetype 12, 15, 3 ; 	notetype $C, $00
	octave 4
	C_ 2
	octave 3
	G_ 2
	octave 4
	D_ 2
	D# 2
	F_ 2
	D_ 2
	D# 2
	C_ 2
	C_ 2
	octave 3
	G_ 2
	octave 4
	D_ 2
	D# 2
	F_ 2
	D_ 2
	D# 2
	C_ 2
	C# 2
	octave 3
	G# 2
	octave 4
	D# 2
	E_ 2
	F# 2
	D# 2
	E_ 2
	C# 2
	C# 2
	octave 3
	G# 2
	octave 4
	D# 2
	E_ 2
	F# 2
	D# 2
	E_ 2
	C# 2
	C_ 2
	octave 3
	G_ 2
	octave 4
	D_ 2
	D# 2
	F_ 2
	D_ 2
	D# 2
	C_ 2
	C_ 2
	octave 3
	G_ 2
	octave 4
	D_ 2
	D# 2
	F_ 2
	D_ 2
	D# 2
	C_ 2
	C# 2
	octave 3
	G# 2
	octave 4
	D# 2
	E_ 2
	F# 2
	D# 2
	E_ 2
	C# 2
	C# 2
	octave 3
	G# 2
	octave 4
	D# 2
	E_ 2
	F# 2
	D# 2
	E_ 2
	C# 2
	octave 5
	C_ 1
	octave 4
	G_ 1
	D# 1
	D_ 1
	octave 5
	F_ 1
	D_ 1
	octave 4
	A# 1
	F_ 1
	octave 5
	C_ 1
	octave 4
	G_ 1
	D# 1
	D_ 1
	octave 5
	F_ 1
	D_ 1
	octave 4
	A# 1
	F_ 1
	octave 5
	C_ 1
	octave 4
	G_ 1
	D# 1
	D_ 1
	octave 5
	F_ 1
	D_ 1
	octave 4
	A# 1
	F_ 1
	octave 5
	C_ 1
	octave 4
	G_ 1
	D# 1
	D_ 1
	octave 5
	F_ 1
	D_ 1
	octave 4
	A# 1
	F_ 1
	octave 5
	C_ 1
	octave 4
	G_ 1
	D# 1
	D_ 1
	octave 5
	F_ 1
	D_ 1
	octave 4
	A# 1
	F_ 1
	octave 5
	C_ 1
	octave 4
	G_ 1
	D# 1
	D_ 1
	octave 5
	F_ 1
	D_ 1
	octave 4
	A# 1
	F_ 1
	octave 5
	C_ 1
	octave 4
	G_ 1
	D# 1
	D_ 1
	octave 5
	F_ 1
	D_ 1
	octave 4
	A# 1
	F_ 1
	octave 5
	C_ 1
	octave 4
	G_ 1
	D# 1
	D_ 1
	octave 5
	F_ 1
	D_ 1
	octave 4
	A# 1
	F_ 1
	octave 5
	C_ 1
	octave 4
	G_ 1
	D# 1
	D_ 1
	octave 5
	F_ 1
	D_ 1
	octave 4
	A# 1
	F_ 1
	octave 5
	C_ 1
	octave 4
	G_ 1
	D# 1
	D_ 1
	octave 5
	F_ 1
	D_ 1
	octave 4
	A# 1
	F_ 1
	octave 5
	C_ 1
	octave 4
	G_ 1
	D# 1
	D_ 1
	octave 5
	F_ 1
	D_ 1
	octave 4
	A# 1
	F_ 1
	octave 5
	C_ 1
	octave 4
	G_ 1
	D# 1
	D_ 1
	octave 5
	F_ 1
	D_ 1
	octave 4
	A# 1
	F_ 1
	octave 5
	C_ 1
	octave 4
	G_ 1
	D# 1
	D_ 1
	octave 5
	F_ 1
	D_ 1
	octave 4
	A# 1
	F_ 1
	octave 5
	C_ 1
	octave 4
	G_ 1
	D# 1
	D_ 1
	octave 5
	F_ 1
	D_ 1
	octave 4
	A# 1
	F_ 1
	octave 5
	C_ 1
	octave 4
	G_ 1
	D# 1
	D_ 1
	octave 5
	F_ 1
	D_ 1
	octave 4
	A# 1
	F_ 1
	octave 5
	C_ 1
	octave 4
	G_ 1
	D# 1
	D_ 1
	octave 5
	F_ 1
	D_ 1
	octave 4
	A# 1
	F_ 1
	F_ 1
	D_ 1
	octave 3
	A# 1
	octave 4
	D_ 1
	F_ 1
	D_ 1
	octave 3
	A# 1
	octave 4
	D_ 1
	F_ 1
	D_ 1
	octave 3
	A# 1
	octave 4
	D_ 1
	F_ 1
	D_ 1
	octave 3
	A# 1
	octave 4
	D_ 1
	D# 1
	C_ 1
	octave 3
	G_ 1
	octave 4
	C_ 1
	D# 1
	C_ 1
	octave 3
	G_ 1
	octave 4
	C_ 1
	D# 1
	C_ 1
	octave 3
	G_ 1
	octave 4
	C_ 1
	D# 1
	C_ 1
	octave 3
	G_ 1
	octave 4
	C_ 1
	octave 3
	G# 1
	F_ 1
	G# 1
	octave 4
	C_ 1
	D# 1
	C_ 1
	D# 1
	G_ 1
	octave 5
	C_ 1
	octave 4
	G_ 1
	octave 5
	C_ 1
	D# 1
	G_ 1
	D# 1
	G_ 1
	A# 1
	octave 6
	C_ 1
	octave 5
	G_ 1
	D# 1
	C_ 1
	G_ 1
	D# 1
	C_ 1
	octave 4
	G_ 1
	octave 5
	D# 1
	C_ 1
	octave 4
	G_ 1
	D# 1
	octave 5
	C_ 1
	octave 4
	G_ 1
	D# 1
	C_ 1
	F_ 1
	D_ 1
	octave 3
	A# 1
	octave 4
	D_ 1
	F_ 1
	D_ 1
	octave 3
	A# 1
	octave 4
	D_ 1
	F_ 1
	D_ 1
	octave 3
	A# 1
	octave 4
	D_ 1
	F_ 1
	D_ 1
	octave 3
	A# 1
	octave 4
	D_ 1
	D# 1
	C_ 1
	octave 3
	G_ 1
	octave 4
	C_ 1
	D# 1
	C_ 1
	octave 3
	G_ 1
	octave 4
	C_ 1
	D# 1
	C_ 1
	octave 3
	G_ 1
	octave 4
	C_ 1
	D# 1
	C_ 1
	octave 3
	G_ 1
	octave 4
	C_ 1
	octave 3
	G# 1
	F_ 1
	A# 1
	octave 4
	C_ 1
	D# 1
	C_ 1
	D# 1
	G_ 1
	octave 5
	C_ 1
	octave 4
	G_ 1
	octave 5
	C_ 1
	D# 1
	G_ 1
	D# 1
	G_ 1
	A# 1
	octave 6
	C_ 1
	octave 5
	G_ 1
	C_ 1
	octave 6
	C_ 1
	octave 5
	G_ 1
	C_ 1
	octave 6
	C_ 1
	octave 5
	G_ 1
	B_ 1
	G_ 1
	octave 4
	B_ 1
	octave 5
	B_ 1
	notetype 15, 15, 3 ;	notetype $E, $00
	G_ 3
	notetype 6, 15, 3 ;	notetype $6, $00
	rest 1
	octave 2
	G_ 2
	octave 3
	C_ 2
	D_ 2
	D# 2
	G_ 2
	octave 4
	C_ 2
	D_ 2
	D# 2
	G_ 2
	octave 5
	C_ 2
	D_ 2
	D# 2
	G_ 2
	octave 6
	C_ 2
	D_ 2
	D# 2
	G_ 2
	D# 2
	D_ 2
	C_ 2
	octave 5
	G_ 2
	D# 2
	D_ 2
	C_ 2
	octave 4
	G_ 2
	D# 2
	D_ 2
	C_ 2
	octave 3
	G_ 2
	D# 2
	D_ 2
	C_ 2
	octave 2
	G_ 2
	octave 3
	C_ 2
	D_ 2
	D# 2
	G_ 2
	octave 4
	C_ 2
	D_ 2
	D# 2
	G_ 2
	octave 5
	C_ 2
	D_ 2
	D# 2
	G_ 2
	octave 6
	C_ 2
	D_ 2
	D# 2
	G_ 2
	D# 2
	D_ 2
	C_ 2
	octave 5
	G_ 2
	D# 2
	D_ 2
	C_ 2
	octave 4
	G_ 2
	D# 2
	D_ 2
	C_ 2
	octave 3
	G_ 2
	D# 2
	D_ 2
	C_ 2
	octave 2
	G_ 2
	octave 3
	C_ 2
	D_ 2
	D# 2
	G_ 2
	octave 4
	C_ 2
	D_ 2
	D# 2
	G_ 2
	octave 5
	C_ 2
	D_ 2
	D# 2
	G_ 2
	octave 6
	C_ 2
	D_ 2
	D# 2
	G_ 2
	D# 2
	D_ 2
	C_ 2
	octave 5
	G_ 2
	D# 2
	D_ 2
	C_ 2
	octave 4
	G_ 2
	D# 2
	D_ 2
	C_ 2
	octave 3
	G_ 2
	D# 2
	D_ 2
	C_ 2
	octave 2
	G_ 2
	octave 3
	C_ 2
	D_ 2
	D# 2
	G_ 2
	octave 4
	C_ 2
	D_ 2
	D# 2
	G_ 2
	octave 5
	C_ 2
	D_ 2
	D# 2
	G_ 2
	octave 6
	C_ 2
	D_ 2
	D# 2
	G_ 2
	D# 2
	D_ 2
	C_ 2
	octave 5
	G_ 2
	D# 2
	D_ 2
	C_ 2
	octave 4
	G_ 2
	D# 2
	D_ 2
	C_ 2
	octave 3
	G_ 2
	D# 2
	D_ 2
	C_ 2
	loopchannel 0, Music_WildBattle_Ch2_loop
